<svg viewBox="0 0 256 256" xmlns="http://www.w3.org/2000/svg"><path fill="none" d="M0 0h256v256H0z"></path><path d="M237.7 18.3a8.1 8.1 0 0 0-11.4 0L176 68.7l-5.4-5.4a31.9 31.9 0 0 0-45.2 0L100 88.7l-2.3-2.4a8.1 8.1 0 0 0-11.4 11.4l2.4 2.3-25.4 25.4a31.9 31.9 0 0 0 0 45.2l5.4 5.4-50.4 50.3a8.1 8.1 0 0 0 0 11.4 8.2 8.2 0 0 0 11.4 0L80 187.3l5.4 5.4a32.1 32.1 0 0 0 45.2 0l25.4-25.4 2.3 2.4a8.2 8.2 0 0 0 11.4 0 8.1 8.1 0 0 0 0-11.4l-2.4-2.3 25.4-25.4a31.9 31.9 0 0 0 0-45.2l-5.4-5.4 50.4-50.3a8.1 8.1 0 0 0 0-11.4Zm-56.3 101L156 144.7 111.3 100l25.4-25.4a15.9 15.9 0 0 1 22.6 0l22.1 22.1a15.9 15.9 0 0 1 0 22.6Zm50.2 43.2a7.9 7.9 0 0 1-7.6 5.5 7.3 7.3 0 0 1-2.5-.4l-24-8a8 8 0 1 1 5-15.2l24 8a8 8 0 0 1 5.1 10.1Zm-207.2-69a8 8 0 0 1 10.1-5.1l24 8A8 8 0 0 1 56 112a7.3 7.3 0 0 1-2.5-.4l-24-8a8 8 0 0 1-5.1-10.1Zm64-59a8 8 0 0 1 15.2-5l8 24a8 8 0 0 1-5.1 10.1 7.3 7.3 0 0 1-2.5.4 7.9 7.9 0 0 1-7.6-5.5Zm79.2 187a8 8 0 0 1-5.1 10.1 7.3 7.3 0 0 1-2.5.4 7.9 7.9 0 0 1-7.6-5.5l-8-24a8 8 0 1 1 15.2-5Z" fill="#ffffff" class="fill-000000"></path></svg>