<svg 
width="28"
height="28"
viewBox="0 0 24 24" xmlns="http://www.w3.org/2000/svg"><circle cx="12" cy="8.667" r="2" fill="#5639cc" class="fill-000000"></circle><path d="M18.93 11.924a7.667 7.667 0 1 0-13.86 0l-3.826 4.422a1 1 0 0 0 .632 1.646l3.672.46.46 3.672A1 1 0 0 0 7.8 22.6L12 17l4.2 5.6a1 1 0 0 0 1.792-.476l.46-3.672 3.672-.46a1 1 0 0 0 .632-1.646ZM7.685 19.42l-.248-1.988a1 1 0 0 0-.869-.869L3.98 16.24l2.22-2.569c.006.008.014.013.02.02a7.728 7.728 0 0 0 1.768 1.5l.023.013a7.612 7.612 0 0 0 2.093.884c.021.006.041.016.062.021Zm5.628-5.246a5.738 5.738 0 0 1-.415.081c-.076.012-.151.026-.229.035a5.226 5.226 0 0 1-1.338 0c-.078-.009-.153-.023-.229-.035a5.738 5.738 0 0 1-.685-.151c-.12-.035-.237-.076-.354-.119s-.235-.087-.349-.137a5.564 5.564 0 0 1-.432-.211c-.1-.052-.185-.111-.276-.168a5.178 5.178 0 0 1-.513-.36c-.119-.1-.235-.194-.346-.3-.041-.038-.084-.073-.123-.112a5.732 5.732 0 0 1-.457-.512c-.012-.014-.022-.03-.034-.045a5.939 5.939 0 0 1-.387-.566 5.667 5.667 0 1 1 9.708 0 5.939 5.939 0 0 1-.387.566c-.012.015-.022.031-.034.045a5.732 5.732 0 0 1-.457.512c-.039.039-.083.075-.124.113-.111.1-.226.2-.345.3a5.945 5.945 0 0 1-.513.36c-.093.058-.181.116-.276.168a5.564 5.564 0 0 1-.781.348 5.657 5.657 0 0 1-.354.119c-.089.025-.183.047-.27.069Zm4.119 2.389a1 1 0 0 0-.869.869l-.248 1.988-2.484-3.312c.021 0 .041-.015.062-.021a7.612 7.612 0 0 0 2.093-.884l.023-.013a7.728 7.728 0 0 0 1.768-1.5c.006-.007.014-.012.02-.02l2.223 2.57Z" fill="#5639cc" class="fill-000000"></path></svg>